<?xml version="1.0" encoding="UTF-8" standalone="no"?>
<!-- Created with Inkscape (http://www.inkscape.org/) -->

<svg
   xmlns:dc="http://purl.org/dc/elements/1.1/"
   xmlns:cc="http://creativecommons.org/ns#"
   xmlns:rdf="http://www.w3.org/1999/02/22-rdf-syntax-ns#"
   xmlns:svg="http://www.w3.org/2000/svg"
   xmlns="http://www.w3.org/2000/svg"
   xmlns:sodipodi="http://sodipodi.sourceforge.net/DTD/sodipodi-0.dtd"
   xmlns:inkscape="http://www.inkscape.org/namespaces/inkscape"
   width="210mm"
   height="297mm"
   viewBox="0 0 744.09448819 1052.3622047"
   id="svg2"
   version="1.1"
   inkscape:version="0.91 r13725"
   sodipodi:docname="reorient-logos.svg">
  <defs
     id="defs4" />
  <sodipodi:namedview
     id="base"
     pagecolor="#ffffff"
     bordercolor="#666666"
     borderopacity="1.0"
     inkscape:pageopacity="0.0"
     inkscape:pageshadow="2"
     inkscape:zoom="0.68782103"
     inkscape:cx="386.72075"
     inkscape:cy="549.07733"
     inkscape:document-units="px"
     inkscape:current-layer="layer1"
     showgrid="false"
     inkscape:window-width="1390"
     inkscape:window-height="941"
     inkscape:window-x="196"
     inkscape:window-y="33"
     inkscape:window-maximized="0" />
  <metadata
     id="metadata7">
    <rdf:RDF>
      <cc:Work
         rdf:about="">
        <dc:format>image/svg+xml</dc:format>
        <dc:type
           rdf:resource="http://purl.org/dc/dcmitype/StillImage" />
        <dc:title></dc:title>
      </cc:Work>
    </rdf:RDF>
  </metadata>
  <g
     inkscape:label="Layer 1"
     inkscape:groupmode="layer"
     id="layer1">
    <path
       style="fill:#000000"
       d="M 222.11133 625.26953 C 206.76862 625.55741 192.84899 636.7702 188.61523 653.55469 C 187.12682 659.4553 187.11277 670.27044 188.58594 675.74219 C 192.02211 688.50503 202.76854 698.72792 215.82422 701.6543 C 222.11713 703.06484 232.4046 702.55754 238.63672 700.5293 C 251.40982 696.3723 256.78712 689.08008 251.19922 683.49219 C 248.23564 680.5286 245.59902 680.60864 239.45117 683.84766 C 231.0051 688.2975 222.42502 688.58944 214.7207 684.69141 C 209.60755 682.10439 205.43769 676.84738 204.29297 671.54297 L 203.85938 669.5332 L 228.95312 669.35547 L 254.04688 669.17969 L 256.18555 666.8457 C 258.10703 664.7485 258.32422 664.14181 258.32422 660.88281 C 258.32422 652.28249 254.19799 642.85353 247.46289 636.06836 C 242.0542 630.61946 237.58266 628.00085 230.72852 626.26758 C 227.84201 625.53764 224.95257 625.21622 222.11133 625.26953 z M 222.18164 640.63086 C 231.304 640.47541 238.86673 645.87604 240.5 653.71094 L 240.92383 655.74219 L 222.36914 655.74219 L 203.81445 655.74219 L 204.22461 654.10938 C 206.35011 645.64069 212.81343 640.7905 222.18164 640.63086 z "
       id="path4299" />
    <path
       style="fill:#000000"
       d="M 306.5332 625.17578 C 303.83317 625.18721 301.05029 625.47284 298.20898 626.05859 C 275.63932 630.71144 263.08161 654.59029 270.86719 678.04883 C 274.58264 689.24379 284.43476 698.17239 296.58398 701.35547 C 315.66427 706.35449 336.14568 695.84988 342.02539 678.04883 C 351.10245 650.56773 332.63355 625.06535 306.5332 625.17578 z M 306.32422 640.65234 C 309.7081 640.60823 313.05222 641.19354 315.42383 642.41992 C 327.56905 648.70034 331.61075 666.04535 323.70312 677.95508 C 321.21851 681.69719 318.61731 683.88022 314.44336 685.72656 C 311.01824 687.24165 305.25348 687.79376 301.70703 686.94531 C 297.74055 685.99636 292.66821 682.6172 290.05078 679.17969 C 281.37763 667.78913 284.98836 648.78206 296.98828 642.66016 C 299.51742 641.36989 302.94034 640.69646 306.32422 640.65234 z "
       id="path4295" />
    <path
       style="fill:#000000"
       d="M 483.70703 625.11719 C 479.39523 625.11719 471.57735 627.13925 467.49805 629.31055 C 465.71895 630.2575 462.26768 633.00585 459.83008 635.41797 C 452.19768 642.97056 448.35894 652.80574 448.33594 664.86133 C 448.32374 671.25537 449.83688 678.20804 452.29688 683.0625 C 457.10867 692.55815 466.04712 699.1951 477.38672 701.69141 L 477.38672 701.69336 C 479.44922 702.1474 483.38672 702.53524 486.13672 702.55664 C 499.84672 702.66312 514.56127 695.32066 514.57227 688.36719 C 514.57817 684.73963 511.05592 681.36719 507.26172 681.36719 C 506.29932 681.36719 503.24987 682.49809 500.48438 683.88086 C 491.96137 688.14232 483.85283 688.57563 476.64453 685.1543 C 471.13343 682.53853 466.83581 677.31689 464.91211 670.89844 L 464.49023 669.49219 L 489.06445 669.49023 C 512.60925 669.48799 513.72483 669.43511 515.70703 668.22656 C 518.93413 666.25648 519.76146 663.54328 518.94336 657.56836 C 517.88806 649.86132 516.09273 645.57355 511.24023 639.16406 C 504.79173 630.64657 493.95463 625.11719 483.70703 625.11719 z M 484.00586 640.63086 C 486.93626 640.63086 489.12268 641.0349 491.23438 641.9668 C 496.48348 644.2833 501.44922 650.20831 501.44922 654.1543 L 501.44922 655.74219 L 483.05078 655.74219 L 464.65039 655.74219 L 465.65039 652.77344 C 468.41869 644.54911 474.33986 640.63086 484.00586 640.63086 z "
       id="path4291" />
    <path
       style="fill:#000000"
       d="m 138.49346,700.44018 c -1.11042,-0.48272 -2.58593,-1.80765 -3.27891,-2.94429 -1.21939,-2.00001 -1.26005,-3.0854 -1.26231,-33.69292 l -0.002,-31.62631 1.42495,-2.12369 c 4.20157,-6.26179 14.82505,-3.21865 14.82505,4.24671 l 0,2.12302 3.40064,-3.48316 c 4.83452,-4.95182 11.90226,-7.85233 19.02841,-7.80901 3.02477,0.0184 7.22249,1.99844 8.5581,4.03684 1.3348,2.03717 1.35302,6.36196 0.0375,8.90587 -1.75452,3.39287 -5.1559,3.91535 -13.6503,2.09678 -7.79322,-1.66845 -14.81984,4.48267 -16.69247,14.61264 -0.39357,2.12903 -0.68288,11.5021 -0.68423,22.16768 -0.002,17.43203 -0.0738,18.59617 -1.26368,20.54782 -1.30077,2.13352 -4.49174,3.88712 -6.99516,3.84418 -0.78447,-0.0134 -2.33484,-0.41943 -3.44526,-0.90216 z"
       id="path4287" />
    <path
       style="fill:#000000"
       d="m 363.36932,700.27208 c -1.17869,-0.60103 -2.72556,-1.88647 -3.4375,-2.85652 -1.25787,-1.71395 -1.29999,-2.57868 -1.49175,-30.625 -0.10853,-15.8737 -0.0111,-30.39309 0.21656,-32.26533 0.7729,-6.35666 6.04912,-9.54137 11.68053,-7.05034 2.97284,1.31503 4.86274,4.16586 4.86274,7.33521 0,1.63201 0.0974,1.58359 2.75103,-1.36792 6.20313,-6.89938 17.90288,-10.23824 24.56868,-7.01137 3.2349,1.56597 4.5553,3.82109 4.5553,7.77995 0,2.47158 -0.3177,3.22374 -2.125,5.03104 -1.7919,1.79188 -2.56933,2.125 -4.95933,2.125 -1.55887,0 -3.62606,-0.30577 -4.59375,-0.67948 -0.96769,-0.37371 -3.3124,-0.71933 -5.21046,-0.76803 -5.95022,-0.15268 -10.96097,3.8734 -13.62136,10.94462 -0.83242,2.21256 -1.07129,6.46978 -1.3449,23.96998 -0.37059,23.70221 -0.39487,23.83367 -4.73625,25.64762 -2.79136,1.1663 -4.51613,1.11553 -7.11454,-0.20943 z"
       id="path4285" />
    <path
       style="fill:#000000"
       d="m 422.73841,700.22478 c -1.1712,-0.62812 -2.6434,-2.10029 -3.2715,-3.27149 -1.0616,-1.97947 -1.142,-4.28729 -1.1411,-32.76422 7e-4,-27.9306 0.097,-30.82392 1.0938,-32.77782 3.2624,-6.3979 11.4232,-6.3979 14.6856,0 0.9958,1.95307 1.0927,4.83059 1.0927,32.45557 0,33.79105 0.076,33.15152 -4.3092,36.0813 -2.568,1.71555 -5.2947,1.80812 -8.1503,0.27666 z"
       id="path4283" />
    <path
       style="fill:#000000"
       d="m 538.36931,700.30578 c -1.1787,-0.61957 -2.7256,-1.92017 -3.4375,-2.89022 -1.2579,-1.71395 -1.3,-2.57868 -1.4917,-30.625 -0.1086,-15.8737 -0.011,-30.39309 0.2165,-32.26533 0.3273,-2.69148 0.8358,-3.82595 2.4293,-5.41945 5.3099,-5.30988 14.114,-1.55683 14.114,6.01653 l 0,2.00412 3.7473,-3.46935 c 2.108,-1.95162 5.8538,-4.51019 8.5626,-5.84857 4.7256,-2.33496 4.9437,-2.37841 11.7214,-2.33542 12.8751,0.0816 18.1719,3.81891 22.2622,15.70782 0.6939,2.01681 1.5084,6.79917 1.8407,10.80794 0.761,9.18085 0.7674,39.5291 0.01,42.81544 -1.5373,6.66184 -10.5841,8.66213 -14.6387,3.23665 -1.2679,-1.69672 -1.3288,-2.60641 -1.6296,-24.37457 l -0.3125,-22.61208 -1.875,-3.75 c -1.5587,-3.11742 -2.374,-3.99755 -4.8332,-5.2175 -6.5531,-3.25076 -16.6191,-1.26541 -21.1095,4.16348 -3.4538,4.17569 -3.7448,6.38063 -3.7448,28.37503 0,21.5549 -0.209,23.12109 -3.3615,25.18666 -2.4349,1.59543 -5.98,1.80214 -8.4691,0.4938 z"
       id="path4281" />
    <path
       style="fill:#000000"
       d="m 638.53981,700.71593 c -4.1174,-0.8146 -8.86,-3.10648 -10.5264,-5.08693 -3.1377,-3.72887 -3.4385,-6.38129 -3.4385,-30.31315 l 0,-22.07406 -4.1243,0 c -6.8806,0 -10.2507,-2.64837 -10.2507,-8.05532 0,-1.93318 0.4406,-3.04365 1.8217,-4.59107 1.7211,-1.92841 2.1093,-2.05837 7.0312,-2.35361 l 5.2096,-0.3125 0.3125,-6.25 c 0.1934,-3.86792 0.6502,-6.75822 1.1986,-7.58344 2.9577,-4.45082 10.9344,-4.45082 13.8359,0 0.5221,0.80088 1.0009,3.8296 1.1987,7.58344 l 0.3293,6.25 6.6715,0.3125 c 5.9829,0.28025 6.8387,0.4699 8.2917,1.83757 2.4248,2.28234 3.1988,5.49107 2.0105,8.33504 -1.5695,3.75634 -4.0422,4.82232 -11.1925,4.82505 l -6.0937,0.002 0.01,19.53125 c 0.01,21.12134 0.1285,21.95558 3.3401,23.49544 1.4399,0.69045 2.4526,0.69959 5.7128,0.0516 3.5005,-0.69579 4.1479,-0.6663 5.5507,0.25288 2.1204,1.38929 3.2634,5.50174 2.2256,8.00722 -2.1635,5.22313 -10.392,7.86325 -19.1235,6.13578 z"
       id="path4279" />
    <path
       style="fill:#000000"
       d="m 421.02201,616.39309 c -2.0961,-0.89157 -2.9333,-3.06623 -2.9444,-7.64739 -0.01,-3.18437 0.2626,-4.48494 1.1317,-5.44522 1.7299,-1.91155 5.0737,-2.75875 9.3559,-2.37046 5.4101,0.49057 6.6347,2.00685 6.6347,8.21489 0,6.66698 -0.8141,7.48973 -7.601,7.68161 -2.8663,0.081 -5.8259,-0.11401 -6.5769,-0.43343 z"
       id="path4277" />
    <path
       style="fill:#000000"
       d="M 219.31836 483.87695 C 207.95526 483.90995 196.1119 490.99953 190.41992 501.17773 C 187.29729 506.76152 185.89873 511.19621 185.23242 517.62695 C 183.10381 538.17071 193.53617 554.32114 211.8418 558.81836 C 217.40921 560.18613 224.79742 560.44276 229.70117 559.43945 C 235.10489 558.33385 243.9539 553.74204 246.95312 550.48828 C 249.08443 548.17607 249.57422 547.19589 249.57422 545.24023 C 249.57422 540.0258 244.20201 538.29106 239.35156 541.93945 C 232.62703 546.99748 226.20196 548.73363 218.34375 547.61914 C 208.70011 546.25142 201.71049 540.35036 198.83984 531.1543 C 196.74753 524.45164 194.01211 525.11719 223.68555 525.11719 L 249.67188 525.11719 L 251.49805 523.28906 C 253.06358 521.72355 253.32441 520.98577 253.31641 518.13281 C 253.28495 506.79517 245.95395 494.34921 235.8125 488.41016 C 231.7715 486.04366 223.83994 483.86385 219.31836 483.87695 z M 219.47852 496.34766 C 221.77242 496.36465 224.03558 496.67034 225.99023 497.28516 C 232.73483 499.40659 238.30187 505.48694 239.3125 511.83594 L 239.73438 514.49219 L 219.0293 514.49219 C 195.70363 514.49219 197.46386 514.96543 199.5957 509.26758 C 201.22014 504.92588 204.79057 500.87944 209.0332 498.57031 C 211.74678 497.0934 215.65534 496.31934 219.47852 496.34766 z "
       id="path4275" />
    <path
       style="fill:#000000"
       d="M 301.9668 483.94531 C 288.66105 483.76073 275.52144 490.7688 268.99023 503.95312 C 261.15138 519.77714 264.38157 539.34634 276.68164 550.56445 C 280.5804 554.12026 287.29414 557.71133 292.69922 559.13086 C 300.31711 561.13153 310.38092 559.99984 318.26953 556.25391 C 323.50313 553.76871 330.94597 546.4425 333.83008 540.9375 C 341.72576 525.86671 339.02247 506.30288 327.44922 494.75 C 320.25221 487.56566 311.07073 484.0716 301.9668 483.94531 z M 300.64648 496.39062 C 303.93601 496.28766 307.2867 496.68144 309.72852 497.60156 C 316.77407 500.25646 322.79385 507.60082 324.49609 515.61719 C 327.76988 531.03453 319.4899 544.97978 305.5293 547.56055 C 303.50342 547.93505 301.54624 548.20837 301.17969 548.16797 C 294.06548 547.38326 288.97929 545.05254 284.92188 540.71484 C 272.98067 527.94873 276.66983 505.5543 291.93164 498.1582 C 294.13002 497.09283 297.35695 496.49359 300.64648 496.39062 z "
       id="path4271" />
    <path
       style="fill:#000000"
       d="M 473.91992 483.99023 C 473.19985 483.98907 472.47954 484.01579 471.76172 484.07031 C 456.45652 485.23287 444.67493 495.51231 440.39453 511.4375 C 438.92413 516.91013 438.95067 528.378 440.44727 533.86719 C 443.90217 546.5392 454.12722 556.26133 467.07422 559.18359 C 472.59212 560.42905 483.06889 560.01906 487.71289 558.37695 C 496.79309 555.16624 503.94922 549.6311 503.94922 545.81641 C 503.94922 543.03696 502.95697 541.4156 500.66797 540.45312 C 498.18397 539.40871 496.03429 540.02388 492.12109 542.89648 C 486.24509 547.20983 480.18306 548.67773 472.66406 547.61133 C 462.11906 546.1158 453.66939 537.99141 452.30469 528.03516 L 451.9043 525.11719 L 477.63672 525.11719 C 505.91052 525.11719 505.49926 525.16959 507.09766 521.31055 C 508.78326 517.24134 506.26459 506.67734 502.05859 500.16992 C 495.62097 490.20967 484.72096 484.00768 473.91992 483.99023 z M 473.32422 496.68359 C 479.22902 496.67916 480.20271 496.84563 483.03711 498.3418 C 486.58981 500.21715 491.13065 504.81998 492.37695 507.81055 C 492.83385 508.90698 493.30347 510.78907 493.42188 511.99219 L 493.63672 514.17969 L 473.08594 514.34375 L 452.5332 514.50977 L 452.87109 512.42969 C 453.77659 506.8496 458.42687 500.82921 463.94727 498.08789 C 466.32107 496.90914 467.79182 496.68759 473.32422 496.68359 z "
       id="path4267" />
    <path
       style="fill:#000000"
       d="m 138.6374,558.29629 c -0.6875,-0.29258 -1.8125,-1.15698 -2.5,-1.92091 -1.21045,-1.345 -1.25547,-2.39632 -1.42286,-33.22556 -0.15157,-27.91574 -0.0516,-32.09204 0.81137,-33.91071 1.58006,-3.32972 5.42647,-4.43308 9.00429,-2.58293 2.30478,1.19185 2.71083,2.20781 3.13167,7.83562 l 0.35053,4.6875 1.66886,-2.8125 c 6.25712,-10.54498 21.57605,-15.86433 28.28684,-9.82234 3.69602,3.32767 1.20223,10.48041 -3.63468,10.42508 -1.07031,-0.0122 -3.55393,-0.4066 -5.51915,-0.87633 -8.10029,-1.93618 -15.37439,2.87981 -19.40891,12.85012 -1.27801,3.15827 -1.37987,4.65121 -1.689,24.75426 l -0.32896,21.39329 -1.5625,1.53264 c -1.71774,1.6849 -5.23528,2.50355 -7.1875,1.67277 z"
       id="path4263" />
    <path
       style="fill:#000000"
       d="m 358.0124,558.29629 c -0.6875,-0.29258 -1.8125,-1.15698 -2.5,-1.92091 -1.21045,-1.345 -1.25547,-2.39632 -1.42286,-33.22556 -0.15158,-27.91574 -0.0516,-32.09204 0.81137,-33.91071 1.58005,-3.32972 5.42647,-4.43308 9.00429,-2.58293 2.30478,1.19185 2.71083,2.20781 3.13167,7.83562 l 0.35053,4.6875 1.66886,-2.8125 c 6.25712,-10.54498 21.57604,-15.86433 28.28684,-9.82234 3.69602,3.32767 1.20223,10.48041 -3.63468,10.42508 -1.07031,-0.0122 -3.55393,-0.4066 -5.51916,-0.87633 -8.10028,-1.93618 -15.37438,2.87981 -19.4089,12.85012 -1.27801,3.15827 -1.37987,4.65121 -1.689,24.75426 l -0.32896,21.39329 -1.5625,1.53264 c -1.71774,1.6849 -5.23528,2.50355 -7.1875,1.67277 z"
       id="path4261" />
    <path
       style="fill:#000000"
       d="m 414.88741,557.97926 c -3.8203,-1.70866 -3.7318,-0.95014 -3.9416,-33.79996 -0.1053,-16.5 -0.011,-31.24104 0.2098,-32.75786 0.8672,-5.95876 6.9875,-8.45756 10.9674,-4.47772 l 1.8269,1.82692 0,33.05524 c 0,32.69611 -0.014,33.07049 -1.31,34.46136 -1.3027,1.39824 -3.7225,2.60182 -5.137,2.5551 -0.4073,-0.0134 -1.5843,-0.40185 -2.6155,-0.86308 z"
       id="path4259" />
    <path
       style="fill:#000000"
       d="m 527.38741,558.29629 c -0.6875,-0.29258 -1.8125,-1.15698 -2.5,-1.92091 -1.2105,-1.345 -1.2555,-2.39632 -1.4229,-33.22556 -0.1516,-27.91574 -0.052,-32.09204 0.8114,-33.91071 1.5714,-3.31149 5.4263,-4.43318 8.9583,-2.60668 2.2106,1.14311 3.2157,3.39545 3.2157,7.20591 l 0,3.03772 3.9238,-3.92383 c 6.562,-6.56201 14.386,-9.58092 22.844,-8.81447 11.3914,1.03226 17.9388,6.48221 21.1302,17.58833 1.5627,5.43826 2.0725,49.50547 0.6132,52.99822 -1.7742,4.24616 -7.3026,5.23597 -10.464,1.87348 l -1.4847,-1.57918 -0.3125,-23.59098 -0.3125,-23.59098 -1.8829,-3.67946 c -1.2581,-2.45859 -2.7794,-4.30964 -4.585,-5.57868 -2.6009,-1.82795 -2.9524,-1.89921 -9.3672,-1.89921 -6.2206,0 -6.8882,0.12366 -10.0142,1.85509 -1.8421,1.0203 -4.3359,2.98905 -5.5418,4.375 -4.2557,4.8911 -4.2014,4.53859 -4.5464,29.53808 l -0.3125,22.64317 -1.5625,1.53276 c -1.7177,1.685 -5.2352,2.5037 -7.1875,1.67289 z"
       id="path4257" />
    <path
       style="fill:#000000"
       d="m 624.15391,558.21409 c -4.812,-0.95147 -7.6174,-3.05306 -9.9747,-7.47226 -1.0665,-1.99948 -1.1937,-4.33628 -1.4793,-27.1875 l -0.3125,-25 -5.407,-0.17968 c -4.8649,-0.16167 -5.5698,-0.34251 -7.0312,-1.80398 -2.1717,-2.17167 -2.222,-5.68913 -0.1164,-8.13774 1.4131,-1.64318 1.8656,-1.76736 7.1875,-1.97204 l 5.6796,-0.21843 0,-7.17339 c 0,-7.09515 0.02,-7.19332 1.8269,-9.00032 1.4659,-1.46595 2.3706,-1.82692 4.5786,-1.82692 4.9456,0 6.7195,3.34004 6.7195,12.65213 l 0,5.47287 6.281,0 c 6.9731,0 9.2533,0.74469 10.4723,3.42004 1.2134,2.66307 0.8879,4.65985 -1.0802,6.62803 -1.7994,1.79933 -1.9316,1.82693 -8.75,1.82693 l -6.9231,0 0,22.72124 0,22.72123 1.6121,1.73949 c 1.5756,1.70008 1.723,1.73023 6.5091,1.33109 4.7716,-0.39793 4.9304,-0.36594 6.2004,1.24856 1.9403,2.46665 1.6836,4.98316 -0.7572,7.42397 -3.176,3.17596 -8.4178,4.13474 -15.2354,2.78668 z"
       id="path4255" />
    <path
       style="fill:#000000"
       d="m 414.58991,475.11633 c -3.2514,-0.78486 -4.39,-2.59322 -4.39,-6.97218 0,-3.10479 0.2499,-3.95913 1.5341,-5.24326 1.3097,-1.30971 2.1201,-1.53409 5.5407,-1.53409 5.1346,0 7.047,1.32218 7.6409,5.28291 0.4746,3.165 -0.5547,6.95851 -2.1095,7.77431 -1.7157,0.90022 -5.8957,1.25243 -8.2162,0.69231 z"
       id="path4253" />
    <path
       style="fill:#000000"
       d="M 213.69531 343.33594 C 198.98528 343.74531 185.88604 354.68224 182.63867 371.6582 C 181.71914 376.46514 181.89953 386.35495 182.99219 391.06641 C 185.95733 403.85184 196.13481 413.88044 208.94922 416.64258 C 213.96828 417.72444 220.32659 417.83803 224.70117 416.92578 C 231.79721 415.44599 241.37946 409.28648 244.16016 404.41797 C 245.39617 402.25394 245.40661 402.08615 244.375 400.51172 C 242.6858 397.93368 240.72888 398.37149 236.48242 402.27539 C 229.53648 408.66099 222.31139 410.96138 213.50195 409.5918 C 210.8621 409.1814 207.21002 408.1609 205.38672 407.32617 C 200.98696 405.31189 195.81984 400.32894 193.37305 395.73828 C 191.52725 392.27521 189.61104 385.39845 189.58594 382.14844 L 189.57422 380.74219 L 215.73242 380.74219 C 232.38515 380.74219 242.57128 380.50366 243.76953 380.08594 C 246.40076 379.16863 246.9756 377.4694 246.39453 372.30469 C 245.07317 360.55993 238.77842 351.44951 228.63672 346.60156 C 223.68043 344.23235 218.59866 343.19948 213.69531 343.33594 z M 214.57422 351.70312 C 221.83822 351.73305 225.87597 353.14299 230.64258 357.31641 C 234.22457 360.45263 237.39393 366.11075 238.07812 370.58594 L 238.48438 373.24219 L 214.57422 373.24219 L 190.66602 373.24219 L 191.08398 370.62305 C 192.12209 364.13104 198.26881 356.53863 205.06445 353.35352 C 208.17288 351.8966 209.40988 351.68183 214.57422 351.70312 z "
       id="path4251" />
    <path
       style="fill:#000000"
       d="M 294.88672 343.24219 C 290.07793 343.24219 282.386 345.16546 278.12109 347.43555 C 273.02755 350.14669 266.43071 357.10707 263.73047 362.61719 C 252.99614 384.52164 264.14324 411.28065 286.22852 416.62695 C 294.50319 418.63004 303.94526 417.45356 311.50977 413.47852 C 328.52312 404.53826 335.17815 381.25443 326.04492 362.61719 C 323.34468 357.10707 316.74588 350.14669 311.65234 347.43555 C 307.38743 345.16546 299.6955 343.24219 294.88672 343.24219 z M 294.87109 351.12695 C 298.22453 351.12307 301.57378 351.60616 304.10742 352.57812 C 316.38088 357.28651 323.66794 370.92963 321.57617 385.28125 C 319.81343 397.37543 312.18733 406.27428 301.11523 409.1582 C 287.82111 412.62088 274.5798 405.0208 269.48633 391.00391 C 267.50872 385.56173 267.49289 375.71799 269.45312 370.02539 C 272.19575 362.06071 278.40585 355.36199 285.60938 352.59961 C 288.15935 351.62176 291.51766 351.13083 294.87109 351.12695 z "
       id="path4247" />
    <path
       style="fill:#000000"
       d="M 458.69531 343.33594 C 443.98528 343.74531 430.8861 354.68224 427.63867 371.6582 C 426.71917 376.46514 426.89959 386.35495 427.99219 391.06641 C 430.95739 403.85184 441.13482 413.88044 453.94922 416.64258 C 458.96832 417.72444 465.32657 417.83803 469.70117 416.92578 C 476.79727 415.44599 486.37946 409.28648 489.16016 404.41797 C 490.39616 402.25394 490.4066 402.08615 489.375 400.51172 C 487.6858 397.93368 485.72892 398.37149 481.48242 402.27539 C 474.53652 408.66099 467.31145 410.96138 458.50195 409.5918 C 455.86215 409.1814 452.21002 408.1609 450.38672 407.32617 C 445.98702 405.31189 440.81985 400.32894 438.37305 395.73828 C 436.52725 392.27521 434.61094 385.39845 434.58594 382.14844 L 434.57422 380.74219 L 460.73242 380.74219 C 477.38512 380.74219 487.57318 380.50366 488.77148 380.08594 C 491.40468 379.16863 491.97563 377.4694 491.39453 372.30469 C 490.07313 360.55993 483.77842 351.44951 473.63672 346.60156 C 468.68042 344.23235 463.59866 343.19948 458.69531 343.33594 z M 459.57422 351.70312 C 466.83822 351.73305 470.87598 353.14299 475.64258 357.31641 C 479.22458 360.45263 482.39402 366.11075 483.07812 370.58594 L 483.48438 373.24219 L 459.57422 373.24219 L 435.66602 373.24219 L 436.08398 370.62305 C 437.12208 364.13104 443.26875 356.53863 450.06445 353.35352 C 453.17285 351.8966 454.40982 351.68183 459.57422 351.70312 z "
       id="path4243" />
    <path
       style="fill:#000000"
       d="m 137.0749,415.1168 c -1.21851,-1.21851 -1.25,-2.08333 -1.25,-34.33036 0,-29.23971 0.11403,-33.19438 0.98214,-34.0625 1.5375,-1.53749 4.26281,-1.48855 6.04911,0.10864 0.91501,0.81815 1.09647,2.11113 1.1104,7.91234 l 0.0167,6.93438 1.9609,-3.61441 c 2.36675,-4.36251 7.57757,-9.6762 11.6767,-11.90722 3.50378,-1.907 10.6669,-3.29836 13.87583,-2.69524 2.64909,0.49789 4.95326,2.45498 4.95326,4.20713 0,1.97063 -2.91829,4.53723 -4.56652,4.01619 -3.43805,-1.08683 -8.63376,-1.08503 -11.48533,0.004 -3.59025,1.37113 -10.49835,8.11176 -12.8478,12.53634 -3.28654,6.1896 -3.60035,8.80787 -3.60035,30.03941 l 0,19.51082 -1.64679,1.29537 c -2.07074,1.62884 -3.63119,1.64238 -5.22821,0.0454 z"
       id="path4239" />
    <path
       style="fill:#000000"
       d="m 349.34668,415.0714 -1.64678,-1.29537 0,-32.49572 c 0,-21.7103 0.22005,-32.9069 0.663,-33.73456 1.51196,-2.82514 6.49262,-2.5927 7.16568,0.33441 0.1643,0.7145 0.36849,4.1116 0.45377,7.5491 l 0.15505,6.25 1.52245,-3.125 c 1.98361,-4.07157 8.87795,-10.92133 12.85255,-12.76944 6.31451,-2.93614 14.00117,-3.22939 16.59736,-0.6332 2.60344,2.60344 0.35974,7.40007 -3.06478,6.55196 -0.91167,-0.22579 -3.28328,-0.56899 -5.27025,-0.76266 -3.18712,-0.31066 -4.08416,-0.12002 -7.61551,1.61846 -2.50958,1.23546 -5.06664,3.15379 -6.85446,5.14227 -3.42513,3.80958 -6.99835,10.8459 -7.85562,15.46916 -0.34333,1.85161 -0.62424,11.76567 -0.62424,22.03125 0,17.83137 -0.0558,18.72051 -1.25,19.9147 -1.59702,1.59702 -3.15748,1.58348 -5.22822,-0.0454 z"
       id="path4237" />
    <path
       style="fill:#000000"
       d="m 402.6999,415.1168 c -1.21934,-1.21933 -1.25,-2.08333 -1.25,-35.21563 0,-32.11161 0.0624,-34.0221 1.14296,-35 1.67605,-1.51679 4.82855,-1.3307 6.00905,0.3547 0.8513,1.21537 0.973,5.58871 0.973,34.97565 l 0,33.58659 -1.3679,1.27434 c -1.736,1.61736 -3.9045,1.62695 -5.50711,0.0244 z"
       id="path4235" />
    <path
       style="fill:#000000"
       d="m 510.96391,415.39386 -1.389,-0.97294 0,-33.2826 c 0,-36.62441 -0.1077,-35.60485 3.7589,-35.60485 3.2177,0 4.3661,1.91375 4.3661,7.2757 l 0,4.42889 1.8229,-2.46688 c 3.8419,-5.1988 11.8632,-9.84528 19.1513,-11.09369 2.9807,-0.51056 5.318,-0.50186 8.9908,0.0334 10.3016,1.50146 15.8781,6.54775 19.1867,17.36216 1.0219,3.34041 1.1425,6.30603 1.1511,28.31617 l 0.01,24.58498 -1.4755,1.19627 c -1.8664,1.51325 -3.306,1.51389 -5.174,0.002 l -1.4754,-1.1941 -0.3125,-24.8998 c -0.2776,-22.11372 -0.4371,-25.17578 -1.4256,-27.36617 -2.855,-6.32608 -6.7531,-9.34008 -13.4076,-10.36671 -10.0145,-1.54497 -20.8045,3.73558 -25.1953,12.33035 -1.5299,2.9947 -1.5349,3.06593 -1.8465,26.65249 l -0.3125,23.64977 -1.4755,1.19398 c -1.7899,1.44838 -3.1114,1.50742 -4.948,0.22104 z"
       id="path4233" />
    <path
       style="fill:#000000"
       d="m 604.83271,415.69476 c -1.4183,-0.3394 -3.475,-1.5075 -4.6236,-2.6259 -4.1048,-3.99692 -4.0523,-3.58524 -4.2587,-33.39929 l -0.1869,-27.00972 -6.3532,-0.17778 c -6.1746,-0.17278 -6.3797,-0.22526 -7.3002,-1.86788 -0.8746,-1.56084 -0.8474,-1.82375 0.3556,-3.4375 1.249,-1.67554 1.5505,-1.75475 7.3309,-1.92627 l 6.0283,-0.17888 0,-8.27581 c 0,-9.55104 0.544,-11.05393 4.0011,-11.05393 3.6739,0 4.1239,1.18183 4.1239,10.83046 l 0,8.54454 7.7671,0 c 7.6466,0 7.7873,0.0256 9.0625,1.64679 1.591,2.02255 1.6437,3.46929 0.1748,4.79857 -0.8816,0.79788 -2.7805,1.05173 -8.9062,1.19061 l -7.7857,0.17653 -0.1637,24.28074 c -0.1033,15.33006 0.075,25.16789 0.4844,26.68732 0.4051,1.50445 1.3664,2.91808 2.5643,3.7711 1.6347,1.16402 2.4471,1.30903 5.5288,0.98693 3.0484,-0.31862 3.7794,-0.19323 4.6808,0.80287 1.4221,1.5714 1.0251,3.69568 -0.9677,5.17768 -1.9263,1.43257 -7.7609,1.96714 -11.5566,1.05882 z"
       id="path4231" />
    <path
       style="fill:#000000"
       d="m 401.61391,332.91134 c -1.49643,-1.04815 -2.39818,-4.42832 -1.73705,-6.51135 1.04081,-3.2793 5.77765,-4.92181 9.08675,-3.15083 2.6775,1.43296 2.6775,8.55232 0,9.98528 -1.7599,0.9419 -5.79705,0.76442 -7.3497,-0.3231 z"
       id="path4229" />
    <path
       style="fill:#000000"
       d="M 211.8418 202.08203 C 210.99936 202.0836 210.16168 202.10701 209.36523 202.15234 C 204.48705 202.43003 203.23473 202.7675 198.63477 205.04688 C 189.86317 209.39337 183.78182 217.34021 181.16211 227.88281 C 179.78924 233.40759 179.74386 243.38936 181.06641 249.02344 C 184.03906 261.687 193.90835 271.45578 206.44922 274.14648 C 214.95199 275.9708 223.26512 275.02971 229.82812 271.50195 C 234.08871 269.2118 242.07422 261.61333 242.07422 259.84961 C 242.07422 258.47566 241.02011 256.99219 240.04297 256.99219 C 239.75003 256.99219 237.41203 258.97712 234.84766 261.4043 C 227.26949 268.57705 220.14204 270.99302 210.61719 269.61914 C 197.89701 267.78436 189.1652 259.66914 186.15039 246.88086 C 185.63792 244.70707 185.21398 241.45313 185.20898 239.64844 L 185.19922 236.36719 L 213.19922 236.36719 C 234.14366 236.36719 241.3882 236.1782 241.94922 235.61719 C 243.79508 233.77132 242.07144 223.56814 238.91211 217.64062 C 235.01035 210.32019 226.88226 204.32975 218.48828 202.58594 C 216.93011 202.26206 214.36912 202.07733 211.8418 202.08203 z M 211.91602 207.51562 C 215.81424 207.52925 219.81533 208.49207 223.75195 210.43164 C 230.94948 213.97787 236.25573 221.19251 236.94531 228.36914 L 237.23438 231.36719 L 211.48047 231.36719 L 185.72461 231.36719 L 186.125 229.33594 C 186.91583 225.3159 190.71087 218.57616 194.06641 215.23242 C 199.21 210.10692 205.41897 207.49291 211.91602 207.51562 z "
       id="path4227" />
    <path
       style="fill:#000000"
       d="M 291.67188 202.06055 C 287.23807 202.02128 282.52605 202.64772 279.39453 203.84375 C 268.95061 207.83264 261.46996 216.25722 257.91406 228.03516 C 256.39363 233.0713 256.40612 244.07614 257.9375 249.15234 C 261.85959 262.15334 270.47825 270.824 282.76758 274.12891 C 287.27763 275.34213 294.46555 275.34114 299.17188 274.12695 C 311.51455 270.94265 321.25593 260.83032 324.26172 248.08203 C 325.44443 243.06487 325.44003 234.02392 324.25195 228.98438 C 321.15638 215.85387 311.70969 206.10288 298.95117 202.86914 C 296.89322 202.34753 294.33216 202.08411 291.67188 202.06055 z M 291.38672 207.03516 C 298.44454 207.11033 305.53111 209.91742 311.06836 215.72266 C 317.09971 222.04589 319.72426 229.09053 319.69336 238.86914 C 319.64423 254.39255 310.14525 266.94567 296.52148 269.48828 C 283.72941 271.87566 271.37599 265.59629 265.56641 253.75195 C 260.8105 244.05585 260.80518 233.06431 265.55273 223.38477 C 270.81699 212.65171 281.07144 206.92528 291.38672 207.03516 z "
       id="path4223" />
    <path
       style="fill:#000000"
       d="M 451.33984 202.00781 C 446.40305 202.03535 441.44389 203.21676 436.78906 205.57227 C 432.09216 207.94907 426.33464 214.1536 423.65234 219.73047 C 420.39554 226.50168 419.39315 231.9776 419.74805 241.05469 C 420.07105 249.31542 421.54346 254.41898 425.28516 260.25 C 429.54696 266.89144 437.69871 272.36807 446.00781 274.17383 C 458.15111 276.81283 469.16983 273.64659 477.76953 265.04688 C 481.47083 261.34557 482.28112 259.32414 480.69922 257.74219 C 479.51092 256.55393 479.13674 256.76494 475.02344 260.93945 C 467.99444 268.07304 459.72018 270.94532 450.08398 269.5957 C 435.55498 267.56083 426.11574 256.99115 424.80664 241.29297 L 424.39453 236.36719 L 452.9375 236.36719 L 481.48047 236.36719 L 482.00586 234.96094 C 482.73796 232.99753 481.68315 225.1612 480.12695 221.00195 C 478.34885 216.24963 473.71302 210.35519 469.57422 207.58203 C 463.99669 203.84492 457.68715 201.9724 451.33984 202.00781 z M 451.19531 207.4668 C 454.87371 207.43809 458.62402 208.265 462.27734 209.97461 C 470.51984 213.8317 475.22918 220.03415 476.73828 229.02344 L 477.13086 231.36719 L 451.1543 231.36719 L 425.17578 231.36719 L 425.5957 229.64844 C 427.1783 223.16673 429.57107 218.98442 434.20117 214.60547 C 439.1368 209.93759 445.06465 207.51464 451.19531 207.4668 z "
       id="path4219" />
    <path
       style="fill:#000000"
       d="m 137.1999,273.1168 c -0.56473,-0.56473 -0.75,-9.05067 -0.75,-34.35301 0,-32.96335 0.0238,-33.61574 1.25,-34.27199 0.87936,-0.47062 1.61528,-0.47348 2.48194,-0.01 1.1159,0.59721 1.24836,1.4382 1.40625,8.92824 l 0.17431,8.26892 1.74704,-3.55762 c 2.03093,-4.13572 6.35478,-9.15887 10.10461,-11.73882 5.402,-3.71667 14.67419,-5.52004 18.775,-3.65159 1.31238,0.59796 1.58712,1.10629 1.43566,2.65625 -0.17275,1.76775 -0.3574,1.90662 -2.37481,1.78612 -7.50432,-0.44826 -8.62867,-0.32902 -12.16528,1.29009 -7.81512,3.57788 -15.72665,14.69092 -17.1949,24.15307 -0.34671,2.23437 -0.63251,12.09219 -0.6351,21.90625 -0.005,18.35079 -0.13343,19.34375 -2.50472,19.34375 -0.55,0 -1.3375,-0.3375 -1.75,-0.75 z"
       id="path4215" />
    <path
       style="fill:#000000"
       d="m 345.04365,273.1917 c -1.02017,-0.5942 -1.09311,-2.87387 -1.08419,-33.88725 0.005,-18.2876 0.2162,-33.55195 0.46875,-33.92078 0.94669,-1.38254 2.66971,-1.49389 3.91086,-0.25273 1.08865,1.08865 1.23781,2.11038 1.25248,8.57957 l 0.0166,7.34375 1.91996,-3.53812 c 3.15438,-5.81292 7.50946,-10.19056 12.68052,-12.74625 8.99328,-4.44471 19.90845,-3.38692 17.20355,1.66721 -0.62024,1.15895 -1.02403,1.26001 -3.30323,0.82671 -8.87495,-1.6872 -16.952,2.74495 -23.51929,12.90582 -4.69716,7.26747 -5.01479,9.25862 -5.01479,31.4364 0,16.62173 -0.14287,19.68657 -0.97294,20.87166 -1.06455,1.51985 -1.89029,1.68554 -3.55831,0.71401 z"
       id="path4213" />
    <path
       style="fill:#000000"
       d="m 396.18204,272.88462 c -0.86861,-0.86861 -0.98214,-4.88334 -0.98214,-34.72859 0,-22.06706 0.22391,-34.16484 0.64698,-34.95536 0.72321,-1.35132 3.07982,-1.60711 4.22802,-0.45891 0.56506,0.56506 0.75,9.18452 0.75,34.95536 0,30.26244 -0.11322,34.31857 -0.98215,35.1875 -0.54017,0.54018 -1.36384,0.98214 -1.83035,0.98214 -0.46652,0 -1.29019,-0.44196 -1.83036,-0.98214 z"
       id="path4211" />
    <path
       style="fill:#000000"
       d="m 501.80701,272.88462 c -0.8681,-0.86809 -0.9821,-4.81956 -0.9821,-34.02706 0,-32.93436 0,-33.04802 1.3217,-33.97071 1.3401,-0.93862 2.9887,-0.72449 3.825,0.49682 0.2525,0.36883 0.4634,2.84507 0.4687,5.50277 l 0.01,4.83217 3.9064,-3.89467 c 6.3828,-6.36373 14.3807,-9.83859 22.6133,-9.82476 13.3229,0.0224 21.773,7.07425 24.0182,20.04378 0.4449,2.57014 0.7121,12.69613 0.7121,26.9866 0,19.96023 -0.125,22.99798 -0.9821,23.85506 -1.1196,1.11962 -2.0467,1.22102 -3.3929,0.3711 -0.7997,-0.50492 -0.9834,-4.33775 -1.25,-26.08418 l -0.3125,-25.49228 -1.6257,-3.46602 c -3.2941,-7.02319 -7.9628,-10.28408 -15.7672,-11.01287 -8.0303,-0.74989 -16.2951,2.53989 -22.1768,8.82745 -5.7043,6.09788 -5.7428,6.3204 -5.7428,33.17857 0,19.79947 -0.1253,22.82143 -0.9821,23.67823 -0.5402,0.54018 -1.3639,0.98214 -1.8304,0.98214 -0.4665,0 -1.2902,-0.44196 -1.8303,-0.98214 z"
       id="path4209" />
    <path
       style="fill:#000000"
       d="m 593.71191,273.25303 c -2.4714,-0.78499 -4.7068,-2.97185 -6.0807,-5.94877 -1.0667,-2.31107 -1.1549,-4.61368 -1.1676,-30.46875 l -0.014,-27.96875 -6.2054,0 c -6.2449,0 -8.1868,-0.64274 -8.16,-2.70089 0.029,-2.19176 1.1816,-2.61124 7.7636,-2.8243 l 6.5706,-0.2127 0.1719,-9.7873 0.1718,-9.78731 1.8072,-0.2063 c 1.0264,-0.11717 2.0348,0.15284 2.3342,0.625 0.2898,0.45722 0.5313,4.97974 0.5365,10.05005 l 0.01,9.21875 7.6735,0 c 8.1911,0 10.4515,0.67876 10.4515,3.13845 0,1.98748 -2.0615,2.48655 -10.2714,2.48655 l -7.8536,0 0.015,25.78125 c 0.01,14.17969 0.2699,26.88023 0.5814,28.22342 0.3116,1.3432 1.2956,3.17132 2.1866,4.0625 1.4022,1.40229 2.1715,1.62592 5.7171,1.66191 2.8408,0.0288 4.2708,0.31628 4.6639,0.9375 0.8007,1.26529 0.7436,1.49713 -0.6873,2.79211 -1.4593,1.32068 -7.3054,1.85156 -10.2145,0.92758 z"
       id="path4207" />
    <path
       style="fill:#000000"
       d="m 394.5749,190.7418 c -2.4872,-2.48719 -0.91594,-7.98248 2.34375,-8.19697 3.79485,-0.24971 5.78125,1.40939 5.78125,4.82871 0,2.80131 -1.84419,4.61826 -4.6875,4.61826 -1.35417,0 -2.66369,-0.47619 -3.4375,-1.25 z"
       id="path4201" />
    <path
       id="path4313"
       d="m 212.4217,892.66865 c 0.84244,0.002 1.68012,0.025 2.47657,0.0703 4.87818,0.27769 6.1305,0.61516 10.73046,2.89454 8.7716,4.34649 14.85295,12.29333 17.47266,22.83593 1.37287,5.52478 1.41825,15.50655 0.0957,21.14063 -2.97265,12.66356 -12.84194,22.43234 -25.38281,25.12304 -8.50277,1.82432 -16.8159,0.88323 -23.3789,-2.64453 -4.26059,-2.29015 -12.2461,-9.88862 -12.2461,-11.65234 0,-1.37395 1.05411,-2.85742 2.03125,-2.85742 0.29294,0 2.63094,1.98493 5.19531,4.41211 7.57817,7.17275 14.70562,9.58872 24.23047,8.21484 12.72018,-1.83478 21.45199,-9.95 24.4668,-22.73828 0.51247,-2.17379 0.93641,-5.42773 0.94141,-7.23242 l 0.01,-3.28125 -28,0 c -20.94444,0 -28.18898,-0.18899 -28.75,-0.75 -1.84586,-1.84587 -0.12222,-12.04905 3.03711,-17.97657 3.90176,-7.32043 12.02985,-13.31087 20.42383,-15.05468 1.55817,-0.32388 4.11916,-0.50861 6.64648,-0.50391 z m -0.0742,5.43359 c -3.89822,0.0136 -7.89931,0.97645 -11.83593,2.91602 -7.19753,3.54623 -12.50378,10.76087 -13.19336,17.9375 l -0.28907,2.99805 25.75391,0 25.75586,0 -0.40039,-2.03125 c -0.79083,-4.02004 -4.58587,-10.75978 -7.94141,-14.10352 -5.14359,-5.1255 -11.35256,-7.73951 -17.84961,-7.7168 z"
       style="fill:#000000"
       inkscape:connector-curvature="0" />
    <path
       id="path4315"
       d="m 293.12575,892.64717 c -4.43381,-0.0393 -9.14583,0.58717 -12.27735,1.7832 -10.44392,3.98889 -17.92457,12.41347 -21.48047,24.19141 -1.52043,5.03614 -1.50794,16.04098 0.0234,21.11718 3.92209,13.001 12.54075,21.67166 24.83008,24.97657 4.51005,1.21322 11.69797,1.21223 16.4043,-0.002 12.34267,-3.1843 22.08405,-13.29663 25.08984,-26.04492 1.18271,-5.01716 1.17831,-14.05811 -0.01,-19.09765 -3.09557,-13.13051 -12.54226,-22.8815 -25.30078,-26.11524 -2.05795,-0.52161 -4.61901,-0.78503 -7.27929,-0.80859 z m -0.28516,4.97461 c 7.05782,0.0752 14.14439,2.88226 19.68164,8.6875 6.03135,6.32323 8.6559,13.36787 8.625,23.14648 -0.0491,15.52341 -9.54811,28.07653 -23.17188,30.61914 -12.79207,2.38738 -25.14549,-3.89199 -30.95507,-15.73633 -4.75591,-9.6961 -4.76123,-20.68764 -0.0137,-30.36718 5.26426,-10.73306 15.51871,-16.45949 25.83399,-16.34961 z"
       style="fill:#000000"
       inkscape:connector-curvature="0" />
    <path
       id="path4317"
       d="m 452.03767,892.59443 c 4.93679,0.0275 9.89595,1.20895 14.55078,3.56446 4.6969,2.3768 10.45442,8.58133 13.13672,14.1582 3.2568,6.77121 4.25919,12.24713 3.90429,21.32422 -0.323,8.26073 -1.79541,13.36429 -5.53711,19.19531 -4.2618,6.64144 -12.41355,12.11807 -20.72265,13.92383 -12.1433,2.639 -23.16202,-0.52724 -31.76172,-9.12695 -3.7013,-3.70131 -4.51159,-5.72274 -2.92969,-7.30469 1.1883,-1.18826 1.56248,-0.97725 5.67578,3.19726 7.029,7.13359 15.30326,10.00587 24.93946,8.65625 14.529,-2.03487 23.96824,-12.60455 25.27734,-28.30273 l 0.41211,-4.92578 -28.54297,0 -28.54297,0 -0.52539,-1.40625 c -0.7321,-1.96341 0.32271,-9.79974 1.87891,-13.95899 1.7781,-4.75232 6.41393,-10.64676 10.55273,-13.41992 5.57753,-3.73711 11.88707,-5.60963 18.23438,-5.57422 z m 0.14453,5.45899 c -3.6784,-0.0287 -7.42871,0.7982 -11.08203,2.50781 -8.2425,3.85709 -12.95184,10.05954 -14.46094,19.04883 l -0.39258,2.34375 25.97656,0 25.97852,0 -0.41992,-1.71875 c -1.5826,-6.48171 -3.97537,-10.66402 -8.60547,-15.04297 -4.93563,-4.66788 -10.86348,-7.09083 -16.99414,-7.13867 z"
       style="fill:#000000"
       inkscape:connector-curvature="0" />
    <path
       id="path4319"
       d="m 138.65377,963.70342 c -0.56473,-0.56473 -0.75,-9.05067 -0.75,-34.35301 0,-32.96335 0.0238,-33.61574 1.25,-34.27199 0.87936,-0.47062 1.61528,-0.47348 2.48194,-0.01 1.1159,0.59721 1.24836,1.4382 1.40625,8.92824 l 0.17431,8.26892 1.74704,-3.55762 c 2.03093,-4.13572 6.35478,-9.15887 10.10461,-11.73882 5.402,-3.71667 14.67419,-5.52004 18.775,-3.65159 1.31238,0.59796 1.58712,1.10629 1.43566,2.65625 -0.17275,1.76775 -0.3574,1.90662 -2.37481,1.78612 -7.50432,-0.44826 -8.62867,-0.32902 -12.16528,1.29009 -7.81512,3.57788 -15.72665,14.69092 -17.1949,24.15307 -0.34671,2.23437 -0.63251,12.09219 -0.6351,21.90625 -0.005,18.35079 -0.13343,19.34375 -2.50472,19.34375 -0.55,0 -1.3375,-0.3375 -1.75,-0.75 z"
       style="fill:#000000"
       inkscape:connector-curvature="0" />
    <path
       id="path4321"
       d="m 346.49752,963.77832 c -1.02017,-0.5942 -1.09311,-2.87387 -1.08419,-33.88725 0.005,-18.2876 0.2162,-33.55195 0.46875,-33.92078 0.94669,-1.38254 2.66971,-1.49389 3.91086,-0.25273 1.08865,1.08865 1.23781,2.11038 1.25248,8.57957 l 0.0166,7.34375 1.91996,-3.53812 c 3.15438,-5.81292 7.50946,-10.19056 12.68052,-12.74625 8.99328,-4.44471 19.90845,-3.38692 17.20355,1.66721 -0.62024,1.15895 -1.02403,1.26001 -3.30323,0.82671 -8.87495,-1.6872 -16.952,2.74495 -23.51929,12.90582 -4.69716,7.26747 -5.01479,9.25862 -5.01479,31.4364 0,16.62173 -0.14287,19.68657 -0.97294,20.87166 -1.06455,1.51985 -1.89029,1.68554 -3.55831,0.71401 z"
       style="fill:#000000"
       inkscape:connector-curvature="0" />
    <path
       id="path4323"
       d="m 397.63591,963.47124 c -0.86861,-0.86861 -0.98214,-4.88334 -0.98214,-34.72859 0,-22.06706 0.22391,-34.16484 0.64698,-34.95536 0.72321,-1.35132 3.07982,-1.60711 4.22802,-0.45891 0.56506,0.56506 0.75,9.18452 0.75,34.95536 0,30.26244 -0.11322,34.31857 -0.98215,35.1875 -0.54017,0.54018 -1.36384,0.98214 -1.83035,0.98214 -0.46652,0 -1.29019,-0.44196 -1.83036,-0.98214 z"
       style="fill:#000000"
       inkscape:connector-curvature="0" />
    <path
       id="path4325"
       d="m 503.26088,963.47124 c -0.8681,-0.86809 -0.9821,-4.81956 -0.9821,-34.02706 0,-32.93436 0,-33.04802 1.3217,-33.97071 1.3401,-0.93862 2.9887,-0.72449 3.825,0.49682 0.2525,0.36883 0.4634,2.84507 0.4687,5.50277 l 0.01,4.83217 3.9064,-3.89467 c 6.3828,-6.36373 14.3807,-9.83859 22.6133,-9.82476 13.3229,0.0224 21.773,7.07425 24.0182,20.04378 0.4449,2.57014 0.7121,12.69613 0.7121,26.9866 0,19.96023 -0.125,22.99798 -0.9821,23.85506 -1.1196,1.11962 -2.0467,1.22102 -3.3929,0.3711 -0.7997,-0.50492 -0.9834,-4.33775 -1.25,-26.08418 l -0.3125,-25.49228 -1.6257,-3.46602 c -3.2941,-7.02319 -7.9628,-10.28408 -15.7672,-11.01287 -8.0303,-0.74989 -16.2951,2.53989 -22.1768,8.82745 -5.7043,6.09788 -5.7428,6.3204 -5.7428,33.17857 0,19.79947 -0.1253,22.82143 -0.9821,23.67823 -0.5402,0.54018 -1.3639,0.98214 -1.8304,0.98214 -0.4665,0 -1.2902,-0.44196 -1.8303,-0.98214 z"
       style="fill:#000000"
       inkscape:connector-curvature="0" />
    <path
       id="path4327"
       d="m 595.16578,963.83965 c -2.4714,-0.78499 -4.7068,-2.97185 -6.0807,-5.94877 -1.0667,-2.31107 -1.1549,-4.61368 -1.1676,-30.46875 l -0.014,-27.96875 -6.2054,0 c -6.2449,0 -8.1868,-0.64274 -8.16,-2.70089 0.029,-2.19176 1.1816,-2.61124 7.7636,-2.8243 l 6.5706,-0.2127 0.1719,-9.7873 0.1718,-9.78731 1.8072,-0.2063 c 1.0264,-0.11717 2.0348,0.15284 2.3342,0.625 0.2898,0.45722 0.5313,4.97974 0.5365,10.05005 l 0.01,9.21875 7.6735,0 c 8.1911,0 10.4515,0.67876 10.4515,3.13845 0,1.98748 -2.0615,2.48655 -10.2714,2.48655 l -7.8536,0 0.015,25.78125 c 0.01,14.17969 0.2699,26.88023 0.5814,28.22342 0.3116,1.3432 1.2956,3.17132 2.1866,4.0625 1.4022,1.40229 2.1715,1.62592 5.7171,1.66191 2.8408,0.0288 4.2708,0.31628 4.6639,0.9375 0.8007,1.26529 0.7436,1.49713 -0.6873,2.79211 -1.4593,1.32068 -7.3054,1.85156 -10.2145,0.92758 z"
       style="fill:#000000"
       inkscape:connector-curvature="0" />
    <path
       id="path4329"
       d="m 396.02877,881.32842 c -2.4872,-2.48719 -0.91594,-7.98248 2.34375,-8.19697 3.79485,-0.24971 5.78125,1.40939 5.78125,4.82871 0,2.80131 -1.84419,4.61826 -4.6875,4.61826 -1.35417,0 -2.66369,-0.47619 -3.4375,-1.25 z"
       style="fill:#000000"
       inkscape:connector-curvature="0" />
  </g>
</svg>
