<?xml version="1.0" encoding="UTF-8" standalone="no"?>
<svg
   xmlns:dc="http://purl.org/dc/elements/1.1/"
   xmlns:cc="http://creativecommons.org/ns#"
   xmlns:rdf="http://www.w3.org/1999/02/22-rdf-syntax-ns#"
   xmlns:svg="http://www.w3.org/2000/svg"
   xmlns="http://www.w3.org/2000/svg"
   version="1.1"
   id="svg2"
   viewBox="0 0 473.12509 92.557699"
   height="26.12184mm"
   width="133.52641mm">
  <defs
     id="defs4" />
  <metadata
     id="metadata7">
    <rdf:RDF>
      <cc:Work
         rdf:about="">
        <dc:format>image/svg+xml</dc:format>
        <dc:type
           rdf:resource="http://purl.org/dc/dcmitype/StillImage" />
        <dc:title></dc:title>
      </cc:Work>
    </rdf:RDF>
  </metadata>
  <g
     transform="translate(-137.90377,-873.10691)"
     id="layer1">
    <path
       style="fill:#ffffff;fill-opacity:1"
       d="m 212.4217,892.66865 c 0.84244,0.002 1.68012,0.025 2.47657,0.0703 4.87818,0.27769 6.1305,0.61516 10.73046,2.89454 8.7716,4.34649 14.85295,12.29333 17.47266,22.83593 1.37287,5.52478 1.41825,15.50655 0.0957,21.14063 -2.97265,12.66356 -12.84194,22.43234 -25.38281,25.12304 -8.50277,1.82432 -16.8159,0.88323 -23.3789,-2.64453 -4.26059,-2.29015 -12.2461,-9.88862 -12.2461,-11.65234 0,-1.37395 1.05411,-2.85742 2.03125,-2.85742 0.29294,0 2.63094,1.98493 5.19531,4.41211 7.57817,7.17275 14.70562,9.58872 24.23047,8.21484 12.72018,-1.83478 21.45199,-9.95 24.4668,-22.73828 0.51247,-2.17379 0.93641,-5.42773 0.94141,-7.23242 l 0.01,-3.28125 -28,0 c -20.94444,0 -28.18898,-0.18899 -28.75,-0.75 -1.84586,-1.84587 -0.12222,-12.04905 3.03711,-17.97657 3.90176,-7.32043 12.02985,-13.31087 20.42383,-15.05468 1.55817,-0.32388 4.11916,-0.50861 6.64648,-0.50391 z m -0.0742,5.43359 c -3.89822,0.0136 -7.89931,0.97645 -11.83593,2.91602 -7.19753,3.54623 -12.50378,10.76087 -13.19336,17.9375 l -0.28907,2.99805 25.75391,0 25.75586,0 -0.40039,-2.03125 c -0.79083,-4.02004 -4.58587,-10.75978 -7.94141,-14.10352 -5.14359,-5.1255 -11.35256,-7.73951 -17.84961,-7.7168 z"
       id="path4313" />
    <path
       style="fill:#ffffff;fill-opacity:1"
       d="m 293.12575,892.64717 c -4.43381,-0.0393 -9.14583,0.58717 -12.27735,1.7832 -10.44392,3.98889 -17.92457,12.41347 -21.48047,24.19141 -1.52043,5.03614 -1.50794,16.04098 0.0234,21.11718 3.92209,13.001 12.54075,21.67166 24.83008,24.97657 4.51005,1.21322 11.69797,1.21223 16.4043,-0.002 12.34267,-3.1843 22.08405,-13.29663 25.08984,-26.04492 1.18271,-5.01716 1.17831,-14.05811 -0.01,-19.09765 -3.09557,-13.13051 -12.54226,-22.8815 -25.30078,-26.11524 -2.05795,-0.52161 -4.61901,-0.78503 -7.27929,-0.80859 z m -0.28516,4.97461 c 7.05782,0.0752 14.14439,2.88226 19.68164,8.6875 6.03135,6.32323 8.6559,13.36787 8.625,23.14648 -0.0491,15.52341 -9.54811,28.07653 -23.17188,30.61914 -12.79207,2.38738 -25.14549,-3.89199 -30.95507,-15.73633 -4.75591,-9.6961 -4.76123,-20.68764 -0.0137,-30.36718 5.26426,-10.73306 15.51871,-16.45949 25.83399,-16.34961 z"
       id="path4315" />
    <path
       style="fill:#ffffff;fill-opacity:1"
       d="m 452.03767,892.59443 c 4.93679,0.0275 9.89595,1.20895 14.55078,3.56446 4.6969,2.3768 10.45442,8.58133 13.13672,14.1582 3.2568,6.77121 4.25919,12.24713 3.90429,21.32422 -0.323,8.26073 -1.79541,13.36429 -5.53711,19.19531 -4.2618,6.64144 -12.41355,12.11807 -20.72265,13.92383 -12.1433,2.639 -23.16202,-0.52724 -31.76172,-9.12695 -3.7013,-3.70131 -4.51159,-5.72274 -2.92969,-7.30469 1.1883,-1.18826 1.56248,-0.97725 5.67578,3.19726 7.029,7.13359 15.30326,10.00587 24.93946,8.65625 14.529,-2.03487 23.96824,-12.60455 25.27734,-28.30273 l 0.41211,-4.92578 -28.54297,0 -28.54297,0 -0.52539,-1.40625 c -0.7321,-1.96341 0.32271,-9.79974 1.87891,-13.95899 1.7781,-4.75232 6.41393,-10.64676 10.55273,-13.41992 5.57753,-3.73711 11.88707,-5.60963 18.23438,-5.57422 z m 0.14453,5.45899 c -3.6784,-0.0287 -7.42871,0.7982 -11.08203,2.50781 -8.2425,3.85709 -12.95184,10.05954 -14.46094,19.04883 l -0.39258,2.34375 25.97656,0 25.97852,0 -0.41992,-1.71875 c -1.5826,-6.48171 -3.97537,-10.66402 -8.60547,-15.04297 -4.93563,-4.66788 -10.86348,-7.09083 -16.99414,-7.13867 z"
       id="path4317" />
    <path
       style="fill:#ffffff;fill-opacity:1"
       d="m 138.65377,963.70342 c -0.56473,-0.56473 -0.75,-9.05067 -0.75,-34.35301 0,-32.96335 0.0238,-33.61574 1.25,-34.27199 0.87936,-0.47062 1.61528,-0.47348 2.48194,-0.01 1.1159,0.59721 1.24836,1.4382 1.40625,8.92824 l 0.17431,8.26892 1.74704,-3.55762 c 2.03093,-4.13572 6.35478,-9.15887 10.10461,-11.73882 5.402,-3.71667 14.67419,-5.52004 18.775,-3.65159 1.31238,0.59796 1.58712,1.10629 1.43566,2.65625 -0.17275,1.76775 -0.3574,1.90662 -2.37481,1.78612 -7.50432,-0.44826 -8.62867,-0.32902 -12.16528,1.29009 -7.81512,3.57788 -15.72665,14.69092 -17.1949,24.15307 -0.34671,2.23437 -0.63251,12.09219 -0.6351,21.90625 -0.005,18.35079 -0.13343,19.34375 -2.50472,19.34375 -0.55,0 -1.3375,-0.3375 -1.75,-0.75 z"
       id="path4319" />
    <path
       style="fill:#ffffff;fill-opacity:1"
       d="m 346.49752,963.77832 c -1.02017,-0.5942 -1.09311,-2.87387 -1.08419,-33.88725 0.005,-18.2876 0.2162,-33.55195 0.46875,-33.92078 0.94669,-1.38254 2.66971,-1.49389 3.91086,-0.25273 1.08865,1.08865 1.23781,2.11038 1.25248,8.57957 l 0.0166,7.34375 1.91996,-3.53812 c 3.15438,-5.81292 7.50946,-10.19056 12.68052,-12.74625 8.99328,-4.44471 19.90845,-3.38692 17.20355,1.66721 -0.62024,1.15895 -1.02403,1.26001 -3.30323,0.82671 -8.87495,-1.6872 -16.952,2.74495 -23.51929,12.90582 -4.69716,7.26747 -5.01479,9.25862 -5.01479,31.4364 0,16.62173 -0.14287,19.68657 -0.97294,20.87166 -1.06455,1.51985 -1.89029,1.68554 -3.55831,0.71401 z"
       id="path4321" />
    <path
       style="fill:#ffffff;fill-opacity:1"
       d="m 397.63591,963.47124 c -0.86861,-0.86861 -0.98214,-4.88334 -0.98214,-34.72859 0,-22.06706 0.22391,-34.16484 0.64698,-34.95536 0.72321,-1.35132 3.07982,-1.60711 4.22802,-0.45891 0.56506,0.56506 0.75,9.18452 0.75,34.95536 0,30.26244 -0.11322,34.31857 -0.98215,35.1875 -0.54017,0.54018 -1.36384,0.98214 -1.83035,0.98214 -0.46652,0 -1.29019,-0.44196 -1.83036,-0.98214 z"
       id="path4323" />
    <path
       style="fill:#ffffff;fill-opacity:1"
       d="m 503.26088,963.47124 c -0.8681,-0.86809 -0.9821,-4.81956 -0.9821,-34.02706 0,-32.93436 0,-33.04802 1.3217,-33.97071 1.3401,-0.93862 2.9887,-0.72449 3.825,0.49682 0.2525,0.36883 0.4634,2.84507 0.4687,5.50277 l 0.01,4.83217 3.9064,-3.89467 c 6.3828,-6.36373 14.3807,-9.83859 22.6133,-9.82476 13.3229,0.0224 21.773,7.07425 24.0182,20.04378 0.4449,2.57014 0.7121,12.69613 0.7121,26.9866 0,19.96023 -0.125,22.99798 -0.9821,23.85506 -1.1196,1.11962 -2.0467,1.22102 -3.3929,0.3711 -0.7997,-0.50492 -0.9834,-4.33775 -1.25,-26.08418 l -0.3125,-25.49228 -1.6257,-3.46602 c -3.2941,-7.02319 -7.9628,-10.28408 -15.7672,-11.01287 -8.0303,-0.74989 -16.2951,2.53989 -22.1768,8.82745 -5.7043,6.09788 -5.7428,6.3204 -5.7428,33.17857 0,19.79947 -0.1253,22.82143 -0.9821,23.67823 -0.5402,0.54018 -1.3639,0.98214 -1.8304,0.98214 -0.4665,0 -1.2902,-0.44196 -1.8303,-0.98214 z"
       id="path4325" />
    <path
       style="fill:#ffffff;fill-opacity:1"
       d="m 595.16578,963.83965 c -2.4714,-0.78499 -4.7068,-2.97185 -6.0807,-5.94877 -1.0667,-2.31107 -1.1549,-4.61368 -1.1676,-30.46875 l -0.014,-27.96875 -6.2054,0 c -6.2449,0 -8.1868,-0.64274 -8.16,-2.70089 0.029,-2.19176 1.1816,-2.61124 7.7636,-2.8243 l 6.5706,-0.2127 0.1719,-9.7873 0.1718,-9.78731 1.8072,-0.2063 c 1.0264,-0.11717 2.0348,0.15284 2.3342,0.625 0.2898,0.45722 0.5313,4.97974 0.5365,10.05005 l 0.01,9.21875 7.6735,0 c 8.1911,0 10.4515,0.67876 10.4515,3.13845 0,1.98748 -2.0615,2.48655 -10.2714,2.48655 l -7.8536,0 0.015,25.78125 c 0.01,14.17969 0.2699,26.88023 0.5814,28.22342 0.3116,1.3432 1.2956,3.17132 2.1866,4.0625 1.4022,1.40229 2.1715,1.62592 5.7171,1.66191 2.8408,0.0288 4.2708,0.31628 4.6639,0.9375 0.8007,1.26529 0.7436,1.49713 -0.6873,2.79211 -1.4593,1.32068 -7.3054,1.85156 -10.2145,0.92758 z"
       id="path4327" />
    <path
       style="fill:#ffffff;fill-opacity:1"
       d="m 396.02877,881.32842 c -2.4872,-2.48719 -0.91594,-7.98248 2.34375,-8.19697 3.79485,-0.24971 5.78125,1.40939 5.78125,4.82871 0,2.80131 -1.84419,4.61826 -4.6875,4.61826 -1.35417,0 -2.66369,-0.47619 -3.4375,-1.25 z"
       id="path4329" />
  </g>
</svg>
